<?xml version="1.0" encoding="UTF-8"?>
<svg xmlns="http://www.w3.org/2000/svg" viewBox="0 0 1500 1400" preserveAspectRatio="xMidYMid meet">
  <defs><marker id="m_one" markerWidth="14" markerHeight="14" refX="13" refY="7" orient="auto" markerUnits="userSpaceOnUse"><line x1="6" y1="2" x2="6" y2="12" stroke="#334155" stroke-width="1.6"/></marker><marker id="m_many" markerWidth="16" markerHeight="14" refX="15" refY="7" orient="auto" markerUnits="userSpaceOnUse"><path d="M2,7 L14,2 M2,7 L14,7 M2,7 L14,12" stroke="#334155" stroke-width="1.6" fill="none"/></marker><marker id="m_zeromany" markerWidth="22" markerHeight="14" refX="21" refY="7" orient="auto" markerUnits="userSpaceOnUse"><circle cx="4" cy="7" r="3" fill="white" stroke="#334155" stroke-width="1.4"/><path d="M9,7 L20,2 M9,7 L20,7 M9,7 L20,12" stroke="#334155" stroke-width="1.6" fill="none"/></marker></defs>
  <rect width="1500" height="1400" fill="#fafbfc"/>
  <text x="750" y="42" font-size="22" font-weight="700" fill="#0f172a" text-anchor="middle" font-family="Inter, 'Helvetica Neue', Arial, sans-serif">Diagrama Entidad-Relación · Polizing (v3)</text>
  <g id="relations"><path d="M280,86 L300.0,86 L300.0,86 L320,86" fill="none" stroke="#334155" stroke-width="1.6" marker-start="url(#m_one)" marker-end="url(#m_one)"/><path d="M280,246 L300.0,246 L300.0,86 L320,86" fill="none" stroke="#334155" stroke-width="1.6" marker-start="url(#m_one)" marker-end="url(#m_one)"/><path d="M580,86 L600.0,86 L600.0,410 L620,410" fill="none" stroke="#334155" stroke-width="1.6" marker-start="url(#m_one)" marker-end="url(#m_many)"/><path d="M580,86 L600.0,86 L600.0,108 L620,108" fill="none" stroke="#334155" stroke-width="1.6" marker-start="url(#m_one)" marker-end="url(#m_many)"/><path d="M960,86 L940,86 L940,432 L920,432" fill="none" stroke="#334155" stroke-width="1.6" marker-start="url(#m_one)" marker-end="url(#m_many)"/><path d="M960,306 L940,306 L940,454 L920,454" fill="none" stroke="#334155" stroke-width="1.6" marker-start="url(#m_one)" marker-end="url(#m_many)"/><path d="M960,306 L620.0,306 L620.0,448 L280,448" fill="none" stroke="#334155" stroke-width="1.6" marker-start="url(#m_one)" marker-end="url(#m_many)"/><path d="M280,426 L450.0,426 L450.0,476 L620,476" fill="none" stroke="#334155" stroke-width="1.6" marker-start="url(#m_one)" marker-end="url(#m_many)"/><path d="M880,86 L940,86 L940,498 L620,498" fill="none" stroke="#334155" stroke-width="1.6" marker-start="url(#m_zeromany)" marker-end="url(#m_one)"/><path d="M620,366 L600,366 L600,818 L620,818" fill="none" stroke="#334155" stroke-width="1.6" marker-start="url(#m_one)" marker-end="url(#m_many)"/><path d="M880,796 L920.0,796 L920.0,498 L960,498" fill="none" stroke="#334155" stroke-width="1.6" marker-start="url(#m_one)" marker-end="url(#m_many)"/><path d="M620,796 L450.0,796 L450.0,626 L280,626" fill="none" stroke="#334155" stroke-width="1.6" marker-start="url(#m_one)" marker-end="url(#m_many)"/><path d="M1280,506 L300,506 L300,648 L280,648" fill="none" stroke="#334155" stroke-width="1.6" marker-start="url(#m_one)" marker-end="url(#m_many)"/><path d="M1280,506 L1245,506 L1245,240 L580,240" fill="none" stroke="#334155" stroke-width="1.6" marker-start="url(#m_zeromany)" marker-end="url(#m_one)"/><path d="M1280,506 L1245,506 L1245,652 L920,652" fill="none" stroke="#334155" stroke-width="1.6" marker-start="url(#m_zeromany)" marker-end="url(#m_one)"/><path d="M1280,506 L1245,506 L1245,950 L880,950" fill="none" stroke="#334155" stroke-width="1.6" marker-start="url(#m_zeromany)" marker-end="url(#m_one)"/><path d="M1280,506 L1245,506 L1245,240 L880,240" fill="none" stroke="#334155" stroke-width="1.6" marker-start="url(#m_zeromany)" marker-end="url(#m_one)"/><path d="M1280,506 L1245,506 L1245,196 L1220,196" fill="none" stroke="#334155" stroke-width="1.6" marker-start="url(#m_zeromany)" marker-end="url(#m_one)"/></g>
  <g id="tables"><rect x="23" y="43" width="260" height="130" rx="8" fill="#000" opacity="0.08"/><rect x="20" y="40" width="260" height="130" rx="8" fill="#ffffff" stroke="#cbd5e1" stroke-width="1.2"/><path d="M20,48 a8,8 0 0 1 8,-8 h244 a8,8 0 0 1 8,8 v26 h-260 z" fill="#0d9488"/><text x="150.0" y="64" fill="white" font-size="14" font-weight="700" font-family="Inter, 'Helvetica Neue', Arial, sans-serif" text-anchor="middle">clientes_corporativos</text><line x1="20" y1="74" x2="280" y2="74" stroke="#cbd5e1"/><text x="30" y="89.4" font-size="9" font-weight="700" fill="#dc2626" font-family="Inter, 'Helvetica Neue', Arial, sans-serif">PK·FK</text><text x="66" y="89.4" font-size="12" fill="#0f172a" font-family="Inter, 'Helvetica Neue', Arial, sans-serif">cliente_id</text><text x="268" y="89.4" font-size="11" fill="#64748b" font-family="Inter, 'Helvetica Neue', Arial, sans-serif" text-anchor="end" font-style="italic">Int</text><text x="66" y="111.4" font-size="12" fill="#0f172a" font-family="Inter, 'Helvetica Neue', Arial, sans-serif">cuit</text><text x="268" y="111.4" font-size="11" fill="#64748b" font-family="Inter, 'Helvetica Neue', Arial, sans-serif" text-anchor="end" font-style="italic">String UQ</text><text x="66" y="133.4" font-size="12" fill="#0f172a" font-family="Inter, 'Helvetica Neue', Arial, sans-serif">razon_social</text><text x="268" y="133.4" font-size="11" fill="#64748b" font-family="Inter, 'Helvetica Neue', Arial, sans-serif" text-anchor="end" font-style="italic">String</text><text x="66" y="155.4" font-size="12" fill="#0f172a" font-family="Inter, 'Helvetica Neue', Arial, sans-serif">contacto_nombre</text><text x="268" y="155.4" font-size="11" fill="#64748b" font-family="Inter, 'Helvetica Neue', Arial, sans-serif" text-anchor="end" font-style="italic">String?</text><rect x="323" y="43" width="260" height="240" rx="8" fill="#000" opacity="0.08"/><rect x="320" y="40" width="260" height="240" rx="8" fill="#ffffff" stroke="#cbd5e1" stroke-width="1.2"/><path d="M320,48 a8,8 0 0 1 8,-8 h244 a8,8 0 0 1 8,8 v26 h-260 z" fill="#0f766e"/><text x="450.0" y="64" fill="white" font-size="14" font-weight="700" font-family="Inter, 'Helvetica Neue', Arial, sans-serif" text-anchor="middle">clientes</text><line x1="320" y1="74" x2="580" y2="74" stroke="#cbd5e1"/><text x="332" y="89.4" font-size="10" font-weight="700" fill="#dc2626" font-family="Inter, 'Helvetica Neue', Arial, sans-serif">PK</text><text x="366" y="89.4" font-size="12" fill="#0f172a" font-family="Inter, 'Helvetica Neue', Arial, sans-serif">id</text><text x="568" y="89.4" font-size="11" fill="#64748b" font-family="Inter, 'Helvetica Neue', Arial, sans-serif" text-anchor="end" font-style="italic">Int</text><text x="366" y="111.4" font-size="12" fill="#0f172a" font-family="Inter, 'Helvetica Neue', Arial, sans-serif">tipo</text><text x="568" y="111.4" font-size="11" fill="#64748b" font-family="Inter, 'Helvetica Neue', Arial, sans-serif" text-anchor="end" font-style="italic">ClienteTipo</text><text x="366" y="133.4" font-size="12" fill="#0f172a" font-family="Inter, 'Helvetica Neue', Arial, sans-serif">email</text><text x="568" y="133.4" font-size="11" fill="#64748b" font-family="Inter, 'Helvetica Neue', Arial, sans-serif" text-anchor="end" font-style="italic">String?</text><text x="366" y="155.4" font-size="12" fill="#0f172a" font-family="Inter, 'Helvetica Neue', Arial, sans-serif">telefono</text><text x="568" y="155.4" font-size="11" fill="#64748b" font-family="Inter, 'Helvetica Neue', Arial, sans-serif" text-anchor="end" font-style="italic">String?</text><text x="366" y="177.4" font-size="12" fill="#0f172a" font-family="Inter, 'Helvetica Neue', Arial, sans-serif">direccion</text><text x="568" y="177.4" font-size="11" fill="#64748b" font-family="Inter, 'Helvetica Neue', Arial, sans-serif" text-anchor="end" font-style="italic">String?</text><text x="366" y="199.4" font-size="12" fill="#0f172a" font-family="Inter, 'Helvetica Neue', Arial, sans-serif">estado</text><text x="568" y="199.4" font-size="11" fill="#64748b" font-family="Inter, 'Helvetica Neue', Arial, sans-serif" text-anchor="end" font-style="italic">ClienteEstado</text><text x="366" y="221.4" font-size="12" fill="#0f172a" font-family="Inter, 'Helvetica Neue', Arial, sans-serif">fecha_alta</text><text x="568" y="221.4" font-size="11" fill="#64748b" font-family="Inter, 'Helvetica Neue', Arial, sans-serif" text-anchor="end" font-style="italic">Timestamp</text><text x="332" y="243.4" font-size="10" font-weight="700" fill="#2563eb" font-family="Inter, 'Helvetica Neue', Arial, sans-serif">FK</text><text x="366" y="243.4" font-size="12" fill="#0f172a" font-family="Inter, 'Helvetica Neue', Arial, sans-serif">modificado_por_id</text><text x="568" y="243.4" font-size="11" fill="#64748b" font-family="Inter, 'Helvetica Neue', Arial, sans-serif" text-anchor="end" font-style="italic">Int?</text><text x="366" y="265.4" font-size="12" fill="#0f172a" font-family="Inter, 'Helvetica Neue', Arial, sans-serif">modificado_en</text><text x="568" y="265.4" font-size="11" fill="#64748b" font-family="Inter, 'Helvetica Neue', Arial, sans-serif" text-anchor="end" font-style="italic">Timestamp?</text><rect x="623" y="43" width="260" height="240" rx="8" fill="#000" opacity="0.08"/><rect x="620" y="40" width="260" height="240" rx="8" fill="#ffffff" stroke="#cbd5e1" stroke-width="1.2"/><path d="M620,48 a8,8 0 0 1 8,-8 h244 a8,8 0 0 1 8,8 v26 h-260 z" fill="#b45309"/><text x="750.0" y="64" fill="white" font-size="14" font-weight="700" font-family="Inter, 'Helvetica Neue', Arial, sans-serif" text-anchor="middle">pagos</text><line x1="620" y1="74" x2="880" y2="74" stroke="#cbd5e1"/><text x="632" y="89.4" font-size="10" font-weight="700" fill="#dc2626" font-family="Inter, 'Helvetica Neue', Arial, sans-serif">PK</text><text x="666" y="89.4" font-size="12" fill="#0f172a" font-family="Inter, 'Helvetica Neue', Arial, sans-serif">id</text><text x="868" y="89.4" font-size="11" fill="#64748b" font-family="Inter, 'Helvetica Neue', Arial, sans-serif" text-anchor="end" font-style="italic">Int</text><text x="632" y="111.4" font-size="10" font-weight="700" fill="#2563eb" font-family="Inter, 'Helvetica Neue', Arial, sans-serif">FK</text><text x="666" y="111.4" font-size="12" fill="#0f172a" font-family="Inter, 'Helvetica Neue', Arial, sans-serif">cliente_id</text><text x="868" y="111.4" font-size="11" fill="#64748b" font-family="Inter, 'Helvetica Neue', Arial, sans-serif" text-anchor="end" font-style="italic">Int</text><text x="666" y="133.4" font-size="12" fill="#0f172a" font-family="Inter, 'Helvetica Neue', Arial, sans-serif">monto</text><text x="868" y="133.4" font-size="11" fill="#64748b" font-family="Inter, 'Helvetica Neue', Arial, sans-serif" text-anchor="end" font-style="italic">Decimal</text><text x="666" y="155.4" font-size="12" fill="#0f172a" font-family="Inter, 'Helvetica Neue', Arial, sans-serif">fecha_pago</text><text x="868" y="155.4" font-size="11" fill="#64748b" font-family="Inter, 'Helvetica Neue', Arial, sans-serif" text-anchor="end" font-style="italic">Timestamp?</text><text x="666" y="177.4" font-size="12" fill="#0f172a" font-family="Inter, 'Helvetica Neue', Arial, sans-serif">estado</text><text x="868" y="177.4" font-size="11" fill="#64748b" font-family="Inter, 'Helvetica Neue', Arial, sans-serif" text-anchor="end" font-style="italic">PagoEstado</text><text x="666" y="199.4" font-size="12" fill="#0f172a" font-family="Inter, 'Helvetica Neue', Arial, sans-serif">metodo_pago</text><text x="868" y="199.4" font-size="11" fill="#64748b" font-family="Inter, 'Helvetica Neue', Arial, sans-serif" text-anchor="end" font-style="italic">MetodoPago?</text><text x="666" y="221.4" font-size="12" fill="#0f172a" font-family="Inter, 'Helvetica Neue', Arial, sans-serif">moneda</text><text x="868" y="221.4" font-size="11" fill="#64748b" font-family="Inter, 'Helvetica Neue', Arial, sans-serif" text-anchor="end" font-style="italic">Char(3)</text><text x="632" y="243.4" font-size="10" font-weight="700" fill="#2563eb" font-family="Inter, 'Helvetica Neue', Arial, sans-serif">FK</text><text x="666" y="243.4" font-size="12" fill="#0f172a" font-family="Inter, 'Helvetica Neue', Arial, sans-serif">modificado_por_id</text><text x="868" y="243.4" font-size="11" fill="#64748b" font-family="Inter, 'Helvetica Neue', Arial, sans-serif" text-anchor="end" font-style="italic">Int?</text><text x="666" y="265.4" font-size="12" fill="#0f172a" font-family="Inter, 'Helvetica Neue', Arial, sans-serif">modificado_en</text><text x="868" y="265.4" font-size="11" fill="#64748b" font-family="Inter, 'Helvetica Neue', Arial, sans-serif" text-anchor="end" font-style="italic">Timestamp?</text><rect x="963" y="43" width="260" height="196" rx="8" fill="#000" opacity="0.08"/><rect x="960" y="40" width="260" height="196" rx="8" fill="#ffffff" stroke="#cbd5e1" stroke-width="1.2"/><path d="M960,48 a8,8 0 0 1 8,-8 h244 a8,8 0 0 1 8,8 v26 h-260 z" fill="#7c3aed"/><text x="1090.0" y="64" fill="white" font-size="14" font-weight="700" font-family="Inter, 'Helvetica Neue', Arial, sans-serif" text-anchor="middle">empresas_aseguradoras</text><line x1="960" y1="74" x2="1220" y2="74" stroke="#cbd5e1"/><text x="972" y="89.4" font-size="10" font-weight="700" fill="#dc2626" font-family="Inter, 'Helvetica Neue', Arial, sans-serif">PK</text><text x="1006" y="89.4" font-size="12" fill="#0f172a" font-family="Inter, 'Helvetica Neue', Arial, sans-serif">id</text><text x="1208" y="89.4" font-size="11" fill="#64748b" font-family="Inter, 'Helvetica Neue', Arial, sans-serif" text-anchor="end" font-style="italic">Int</text><text x="1006" y="111.4" font-size="12" fill="#0f172a" font-family="Inter, 'Helvetica Neue', Arial, sans-serif">razon_social</text><text x="1208" y="111.4" font-size="11" fill="#64748b" font-family="Inter, 'Helvetica Neue', Arial, sans-serif" text-anchor="end" font-style="italic">String</text><text x="1006" y="133.4" font-size="12" fill="#0f172a" font-family="Inter, 'Helvetica Neue', Arial, sans-serif">cuit</text><text x="1208" y="133.4" font-size="11" fill="#64748b" font-family="Inter, 'Helvetica Neue', Arial, sans-serif" text-anchor="end" font-style="italic">String UQ</text><text x="1006" y="155.4" font-size="12" fill="#0f172a" font-family="Inter, 'Helvetica Neue', Arial, sans-serif">telefono</text><text x="1208" y="155.4" font-size="11" fill="#64748b" font-family="Inter, 'Helvetica Neue', Arial, sans-serif" text-anchor="end" font-style="italic">String?</text><text x="1006" y="177.4" font-size="12" fill="#0f172a" font-family="Inter, 'Helvetica Neue', Arial, sans-serif">email</text><text x="1208" y="177.4" font-size="11" fill="#64748b" font-family="Inter, 'Helvetica Neue', Arial, sans-serif" text-anchor="end" font-style="italic">String?</text><text x="972" y="199.4" font-size="10" font-weight="700" fill="#2563eb" font-family="Inter, 'Helvetica Neue', Arial, sans-serif">FK</text><text x="1006" y="199.4" font-size="12" fill="#0f172a" font-family="Inter, 'Helvetica Neue', Arial, sans-serif">modificado_por_id</text><text x="1208" y="199.4" font-size="11" fill="#64748b" font-family="Inter, 'Helvetica Neue', Arial, sans-serif" text-anchor="end" font-style="italic">Int?</text><text x="1006" y="221.4" font-size="12" fill="#0f172a" font-family="Inter, 'Helvetica Neue', Arial, sans-serif">modificado_en</text><text x="1208" y="221.4" font-size="11" fill="#64748b" font-family="Inter, 'Helvetica Neue', Arial, sans-serif" text-anchor="end" font-style="italic">Timestamp?</text><rect x="23" y="203" width="260" height="130" rx="8" fill="#000" opacity="0.08"/><rect x="20" y="200" width="260" height="130" rx="8" fill="#ffffff" stroke="#cbd5e1" stroke-width="1.2"/><path d="M20,208 a8,8 0 0 1 8,-8 h244 a8,8 0 0 1 8,8 v26 h-260 z" fill="#0d9488"/><text x="150.0" y="224" fill="white" font-size="14" font-weight="700" font-family="Inter, 'Helvetica Neue', Arial, sans-serif" text-anchor="middle">clientes_no_corporativos</text><line x1="20" y1="234" x2="280" y2="234" stroke="#cbd5e1"/><text x="30" y="249.4" font-size="9" font-weight="700" fill="#dc2626" font-family="Inter, 'Helvetica Neue', Arial, sans-serif">PK·FK</text><text x="66" y="249.4" font-size="12" fill="#0f172a" font-family="Inter, 'Helvetica Neue', Arial, sans-serif">cliente_id</text><text x="268" y="249.4" font-size="11" fill="#64748b" font-family="Inter, 'Helvetica Neue', Arial, sans-serif" text-anchor="end" font-style="italic">Int</text><text x="66" y="271.4" font-size="12" fill="#0f172a" font-family="Inter, 'Helvetica Neue', Arial, sans-serif">dni</text><text x="268" y="271.4" font-size="11" fill="#64748b" font-family="Inter, 'Helvetica Neue', Arial, sans-serif" text-anchor="end" font-style="italic">String UQ</text><text x="66" y="293.4" font-size="12" fill="#0f172a" font-family="Inter, 'Helvetica Neue', Arial, sans-serif">nombre</text><text x="268" y="293.4" font-size="11" fill="#64748b" font-family="Inter, 'Helvetica Neue', Arial, sans-serif" text-anchor="end" font-style="italic">String</text><text x="66" y="315.4" font-size="12" fill="#0f172a" font-family="Inter, 'Helvetica Neue', Arial, sans-serif">apellido</text><text x="268" y="315.4" font-size="11" fill="#64748b" font-family="Inter, 'Helvetica Neue', Arial, sans-serif" text-anchor="end" font-style="italic">String</text><rect x="963" y="263" width="260" height="130" rx="8" fill="#000" opacity="0.08"/><rect x="960" y="260" width="260" height="130" rx="8" fill="#ffffff" stroke="#cbd5e1" stroke-width="1.2"/><path d="M960,268 a8,8 0 0 1 8,-8 h244 a8,8 0 0 1 8,8 v26 h-260 z" fill="#7c3aed"/><text x="1090.0" y="284" fill="white" font-size="14" font-weight="700" font-family="Inter, 'Helvetica Neue', Arial, sans-serif" text-anchor="middle">tipos_seguro</text><line x1="960" y1="294" x2="1220" y2="294" stroke="#cbd5e1"/><text x="972" y="309.4" font-size="10" font-weight="700" fill="#dc2626" font-family="Inter, 'Helvetica Neue', Arial, sans-serif">PK</text><text x="1006" y="309.4" font-size="12" fill="#0f172a" font-family="Inter, 'Helvetica Neue', Arial, sans-serif">id</text><text x="1208" y="309.4" font-size="11" fill="#64748b" font-family="Inter, 'Helvetica Neue', Arial, sans-serif" text-anchor="end" font-style="italic">Int</text><text x="1006" y="331.4" font-size="12" fill="#0f172a" font-family="Inter, 'Helvetica Neue', Arial, sans-serif">nombre</text><text x="1208" y="331.4" font-size="11" fill="#64748b" font-family="Inter, 'Helvetica Neue', Arial, sans-serif" text-anchor="end" font-style="italic">String UQ</text><text x="1006" y="353.4" font-size="12" fill="#0f172a" font-family="Inter, 'Helvetica Neue', Arial, sans-serif">categoria</text><text x="1208" y="353.4" font-size="11" fill="#64748b" font-family="Inter, 'Helvetica Neue', Arial, sans-serif" text-anchor="end" font-style="italic">CategoriaSeguro</text><text x="1006" y="375.4" font-size="12" fill="#0f172a" font-family="Inter, 'Helvetica Neue', Arial, sans-serif">descripcion</text><text x="1208" y="375.4" font-size="11" fill="#64748b" font-family="Inter, 'Helvetica Neue', Arial, sans-serif" text-anchor="end" font-style="italic">String?</text><rect x="623" y="323" width="300" height="372" rx="8" fill="#000" opacity="0.08"/><rect x="620" y="320" width="300" height="372" rx="8" fill="#ffffff" stroke="#cbd5e1" stroke-width="1.2"/><path d="M620,328 a8,8 0 0 1 8,-8 h284 a8,8 0 0 1 8,8 v26 h-300 z" fill="#0f766e"/><text x="770.0" y="344" fill="white" font-size="14" font-weight="700" font-family="Inter, 'Helvetica Neue', Arial, sans-serif" text-anchor="middle">polizas</text><line x1="620" y1="354" x2="920" y2="354" stroke="#cbd5e1"/><text x="632" y="369.4" font-size="10" font-weight="700" fill="#dc2626" font-family="Inter, 'Helvetica Neue', Arial, sans-serif">PK</text><text x="666" y="369.4" font-size="12" fill="#0f172a" font-family="Inter, 'Helvetica Neue', Arial, sans-serif">id</text><text x="908" y="369.4" font-size="11" fill="#64748b" font-family="Inter, 'Helvetica Neue', Arial, sans-serif" text-anchor="end" font-style="italic">Int</text><text x="666" y="391.4" font-size="12" fill="#0f172a" font-family="Inter, 'Helvetica Neue', Arial, sans-serif">numero_poliza</text><text x="908" y="391.4" font-size="11" fill="#64748b" font-family="Inter, 'Helvetica Neue', Arial, sans-serif" text-anchor="end" font-style="italic">String UQ</text><text x="632" y="413.4" font-size="10" font-weight="700" fill="#2563eb" font-family="Inter, 'Helvetica Neue', Arial, sans-serif">FK</text><text x="666" y="413.4" font-size="12" fill="#0f172a" font-family="Inter, 'Helvetica Neue', Arial, sans-serif">cliente_id</text><text x="908" y="413.4" font-size="11" fill="#64748b" font-family="Inter, 'Helvetica Neue', Arial, sans-serif" text-anchor="end" font-style="italic">Int</text><text x="632" y="435.4" font-size="10" font-weight="700" fill="#2563eb" font-family="Inter, 'Helvetica Neue', Arial, sans-serif">FK</text><text x="666" y="435.4" font-size="12" fill="#0f172a" font-family="Inter, 'Helvetica Neue', Arial, sans-serif">aseguradora_id</text><text x="908" y="435.4" font-size="11" fill="#64748b" font-family="Inter, 'Helvetica Neue', Arial, sans-serif" text-anchor="end" font-style="italic">Int</text><text x="632" y="457.4" font-size="10" font-weight="700" fill="#2563eb" font-family="Inter, 'Helvetica Neue', Arial, sans-serif">FK</text><text x="666" y="457.4" font-size="12" fill="#0f172a" font-family="Inter, 'Helvetica Neue', Arial, sans-serif">tipo_seguro_id</text><text x="908" y="457.4" font-size="11" fill="#64748b" font-family="Inter, 'Helvetica Neue', Arial, sans-serif" text-anchor="end" font-style="italic">Int</text><text x="632" y="479.4" font-size="10" font-weight="700" fill="#2563eb" font-family="Inter, 'Helvetica Neue', Arial, sans-serif">FK</text><text x="666" y="479.4" font-size="12" fill="#0f172a" font-family="Inter, 'Helvetica Neue', Arial, sans-serif">cobertura_id</text><text x="908" y="479.4" font-size="11" fill="#64748b" font-family="Inter, 'Helvetica Neue', Arial, sans-serif" text-anchor="end" font-style="italic">Int</text><text x="632" y="501.4" font-size="10" font-weight="700" fill="#2563eb" font-family="Inter, 'Helvetica Neue', Arial, sans-serif">FK</text><text x="666" y="501.4" font-size="12" fill="#0f172a" font-family="Inter, 'Helvetica Neue', Arial, sans-serif">pago_id</text><text x="908" y="501.4" font-size="11" fill="#64748b" font-family="Inter, 'Helvetica Neue', Arial, sans-serif" text-anchor="end" font-style="italic">Int?</text><text x="666" y="523.4" font-size="12" fill="#0f172a" font-family="Inter, 'Helvetica Neue', Arial, sans-serif">estado</text><text x="908" y="523.4" font-size="11" fill="#64748b" font-family="Inter, 'Helvetica Neue', Arial, sans-serif" text-anchor="end" font-style="italic">PolizaEstado</text><text x="666" y="545.4" font-size="12" fill="#0f172a" font-family="Inter, 'Helvetica Neue', Arial, sans-serif">fecha_inicio_vigencia</text><text x="908" y="545.4" font-size="11" fill="#64748b" font-family="Inter, 'Helvetica Neue', Arial, sans-serif" text-anchor="end" font-style="italic">Timestamp</text><text x="666" y="567.4" font-size="12" fill="#0f172a" font-family="Inter, 'Helvetica Neue', Arial, sans-serif">fecha_fin_vigencia</text><text x="908" y="567.4" font-size="11" fill="#64748b" font-family="Inter, 'Helvetica Neue', Arial, sans-serif" text-anchor="end" font-style="italic">Timestamp</text><text x="666" y="589.4" font-size="12" fill="#0f172a" font-family="Inter, 'Helvetica Neue', Arial, sans-serif">suma_asegurada</text><text x="908" y="589.4" font-size="11" fill="#64748b" font-family="Inter, 'Helvetica Neue', Arial, sans-serif" text-anchor="end" font-style="italic">Decimal</text><text x="666" y="611.4" font-size="12" fill="#0f172a" font-family="Inter, 'Helvetica Neue', Arial, sans-serif">prima_mensual</text><text x="908" y="611.4" font-size="11" fill="#64748b" font-family="Inter, 'Helvetica Neue', Arial, sans-serif" text-anchor="end" font-style="italic">Decimal</text><text x="666" y="633.4" font-size="12" fill="#0f172a" font-family="Inter, 'Helvetica Neue', Arial, sans-serif">moneda</text><text x="908" y="633.4" font-size="11" fill="#64748b" font-family="Inter, 'Helvetica Neue', Arial, sans-serif" text-anchor="end" font-style="italic">Char(3)</text><text x="632" y="655.4" font-size="10" font-weight="700" fill="#2563eb" font-family="Inter, 'Helvetica Neue', Arial, sans-serif">FK</text><text x="666" y="655.4" font-size="12" fill="#0f172a" font-family="Inter, 'Helvetica Neue', Arial, sans-serif">modificado_por_id</text><text x="908" y="655.4" font-size="11" fill="#64748b" font-family="Inter, 'Helvetica Neue', Arial, sans-serif" text-anchor="end" font-style="italic">Int?</text><text x="666" y="677.4" font-size="12" fill="#0f172a" font-family="Inter, 'Helvetica Neue', Arial, sans-serif">modificado_en</text><text x="908" y="677.4" font-size="11" fill="#64748b" font-family="Inter, 'Helvetica Neue', Arial, sans-serif" text-anchor="end" font-style="italic">Timestamp?</text><rect x="23" y="383" width="260" height="130" rx="8" fill="#000" opacity="0.08"/><rect x="20" y="380" width="260" height="130" rx="8" fill="#ffffff" stroke="#cbd5e1" stroke-width="1.2"/><path d="M20,388 a8,8 0 0 1 8,-8 h244 a8,8 0 0 1 8,8 v26 h-260 z" fill="#7c3aed"/><text x="150.0" y="404" fill="white" font-size="14" font-weight="700" font-family="Inter, 'Helvetica Neue', Arial, sans-serif" text-anchor="middle">coberturas</text><line x1="20" y1="414" x2="280" y2="414" stroke="#cbd5e1"/><text x="32" y="429.4" font-size="10" font-weight="700" fill="#dc2626" font-family="Inter, 'Helvetica Neue', Arial, sans-serif">PK</text><text x="66" y="429.4" font-size="12" fill="#0f172a" font-family="Inter, 'Helvetica Neue', Arial, sans-serif">id</text><text x="268" y="429.4" font-size="11" fill="#64748b" font-family="Inter, 'Helvetica Neue', Arial, sans-serif" text-anchor="end" font-style="italic">Int</text><text x="32" y="451.4" font-size="10" font-weight="700" fill="#2563eb" font-family="Inter, 'Helvetica Neue', Arial, sans-serif">FK</text><text x="66" y="451.4" font-size="12" fill="#0f172a" font-family="Inter, 'Helvetica Neue', Arial, sans-serif">tipo_seguro_id</text><text x="268" y="451.4" font-size="11" fill="#64748b" font-family="Inter, 'Helvetica Neue', Arial, sans-serif" text-anchor="end" font-style="italic">Int</text><text x="66" y="473.4" font-size="12" fill="#0f172a" font-family="Inter, 'Helvetica Neue', Arial, sans-serif">nombre</text><text x="268" y="473.4" font-size="11" fill="#64748b" font-family="Inter, 'Helvetica Neue', Arial, sans-serif" text-anchor="end" font-style="italic">String</text><text x="66" y="495.4" font-size="12" fill="#0f172a" font-family="Inter, 'Helvetica Neue', Arial, sans-serif">descripcion</text><text x="268" y="495.4" font-size="11" fill="#64748b" font-family="Inter, 'Helvetica Neue', Arial, sans-serif" text-anchor="end" font-style="italic">String?</text><rect x="963" y="433" width="260" height="196" rx="8" fill="#000" opacity="0.08"/><rect x="960" y="430" width="260" height="196" rx="8" fill="#ffffff" stroke="#cbd5e1" stroke-width="1.2"/><path d="M960,438 a8,8 0 0 1 8,-8 h244 a8,8 0 0 1 8,8 v26 h-260 z" fill="#0d9488"/><text x="1090.0" y="454" fill="white" font-size="14" font-weight="700" font-family="Inter, 'Helvetica Neue', Arial, sans-serif" text-anchor="middle">siniestro_documentos</text><line x1="960" y1="464" x2="1220" y2="464" stroke="#cbd5e1"/><text x="972" y="479.4" font-size="10" font-weight="700" fill="#dc2626" font-family="Inter, 'Helvetica Neue', Arial, sans-serif">PK</text><text x="1006" y="479.4" font-size="12" fill="#0f172a" font-family="Inter, 'Helvetica Neue', Arial, sans-serif">id</text><text x="1208" y="479.4" font-size="11" fill="#64748b" font-family="Inter, 'Helvetica Neue', Arial, sans-serif" text-anchor="end" font-style="italic">Int</text><text x="972" y="501.4" font-size="10" font-weight="700" fill="#2563eb" font-family="Inter, 'Helvetica Neue', Arial, sans-serif">FK</text><text x="1006" y="501.4" font-size="12" fill="#0f172a" font-family="Inter, 'Helvetica Neue', Arial, sans-serif">siniestro_id</text><text x="1208" y="501.4" font-size="11" fill="#64748b" font-family="Inter, 'Helvetica Neue', Arial, sans-serif" text-anchor="end" font-style="italic">Int</text><text x="1006" y="523.4" font-size="12" fill="#0f172a" font-family="Inter, 'Helvetica Neue', Arial, sans-serif">tipo</text><text x="1208" y="523.4" font-size="11" fill="#64748b" font-family="Inter, 'Helvetica Neue', Arial, sans-serif" text-anchor="end" font-style="italic">DocumentoTipo</text><text x="1006" y="545.4" font-size="12" fill="#0f172a" font-family="Inter, 'Helvetica Neue', Arial, sans-serif">nombre</text><text x="1208" y="545.4" font-size="11" fill="#64748b" font-family="Inter, 'Helvetica Neue', Arial, sans-serif" text-anchor="end" font-style="italic">String</text><text x="1006" y="567.4" font-size="12" fill="#0f172a" font-family="Inter, 'Helvetica Neue', Arial, sans-serif">url</text><text x="1208" y="567.4" font-size="11" fill="#64748b" font-family="Inter, 'Helvetica Neue', Arial, sans-serif" text-anchor="end" font-style="italic">String</text><text x="1006" y="589.4" font-size="12" fill="#0f172a" font-family="Inter, 'Helvetica Neue', Arial, sans-serif">mime_type</text><text x="1208" y="589.4" font-size="11" fill="#64748b" font-family="Inter, 'Helvetica Neue', Arial, sans-serif" text-anchor="end" font-style="italic">String</text><text x="1006" y="611.4" font-size="12" fill="#0f172a" font-family="Inter, 'Helvetica Neue', Arial, sans-serif">tamano_bytes</text><text x="1208" y="611.4" font-size="11" fill="#64748b" font-family="Inter, 'Helvetica Neue', Arial, sans-serif" text-anchor="end" font-style="italic">Int?</text><rect x="1283" y="463" width="200" height="152" rx="8" fill="#000" opacity="0.08"/><rect x="1280" y="460" width="200" height="152" rx="8" fill="#ffffff" stroke="#cbd5e1" stroke-width="1.2"/><path d="M1280,468 a8,8 0 0 1 8,-8 h184 a8,8 0 0 1 8,8 v26 h-200 z" fill="#475569"/><text x="1380.0" y="484" fill="white" font-size="14" font-weight="700" font-family="Inter, 'Helvetica Neue', Arial, sans-serif" text-anchor="middle">usuarios</text><line x1="1280" y1="494" x2="1480" y2="494" stroke="#cbd5e1"/><text x="1292" y="509.4" font-size="10" font-weight="700" fill="#dc2626" font-family="Inter, 'Helvetica Neue', Arial, sans-serif">PK</text><text x="1326" y="509.4" font-size="12" fill="#0f172a" font-family="Inter, 'Helvetica Neue', Arial, sans-serif">id</text><text x="1468" y="509.4" font-size="11" fill="#64748b" font-family="Inter, 'Helvetica Neue', Arial, sans-serif" text-anchor="end" font-style="italic">Int</text><text x="1326" y="531.4" font-size="12" fill="#0f172a" font-family="Inter, 'Helvetica Neue', Arial, sans-serif">dni</text><text x="1468" y="531.4" font-size="11" fill="#64748b" font-family="Inter, 'Helvetica Neue', Arial, sans-serif" text-anchor="end" font-style="italic">String UQ</text><text x="1326" y="553.4" font-size="12" fill="#0f172a" font-family="Inter, 'Helvetica Neue', Arial, sans-serif">email</text><text x="1468" y="553.4" font-size="11" fill="#64748b" font-family="Inter, 'Helvetica Neue', Arial, sans-serif" text-anchor="end" font-style="italic">String UQ</text><text x="1326" y="575.4" font-size="12" fill="#0f172a" font-family="Inter, 'Helvetica Neue', Arial, sans-serif">nombre_completo</text><text x="1468" y="575.4" font-size="11" fill="#64748b" font-family="Inter, 'Helvetica Neue', Arial, sans-serif" text-anchor="end" font-style="italic">String</text><text x="1326" y="597.4" font-size="12" fill="#0f172a" font-family="Inter, 'Helvetica Neue', Arial, sans-serif">rol</text><text x="1468" y="597.4" font-size="11" fill="#64748b" font-family="Inter, 'Helvetica Neue', Arial, sans-serif" text-anchor="end" font-style="italic">Rol</text><rect x="23" y="583" width="260" height="108" rx="8" fill="#000" opacity="0.08"/><rect x="20" y="580" width="260" height="108" rx="8" fill="#ffffff" stroke="#cbd5e1" stroke-width="1.2"/><path d="M20,588 a8,8 0 0 1 8,-8 h244 a8,8 0 0 1 8,8 v26 h-260 z" fill="#475569"/><text x="150.0" y="604" fill="white" font-size="14" font-weight="700" font-family="Inter, 'Helvetica Neue', Arial, sans-serif" text-anchor="middle">siniestro_lecturas</text><line x1="20" y1="614" x2="280" y2="614" stroke="#cbd5e1"/><text x="30" y="629.4" font-size="9" font-weight="700" fill="#dc2626" font-family="Inter, 'Helvetica Neue', Arial, sans-serif">PK·FK</text><text x="66" y="629.4" font-size="12" fill="#0f172a" font-family="Inter, 'Helvetica Neue', Arial, sans-serif">siniestro_id</text><text x="268" y="629.4" font-size="11" fill="#64748b" font-family="Inter, 'Helvetica Neue', Arial, sans-serif" text-anchor="end" font-style="italic">Int</text><text x="30" y="651.4" font-size="9" font-weight="700" fill="#dc2626" font-family="Inter, 'Helvetica Neue', Arial, sans-serif">PK·FK</text><text x="66" y="651.4" font-size="12" fill="#0f172a" font-family="Inter, 'Helvetica Neue', Arial, sans-serif">usuario_id</text><text x="268" y="651.4" font-size="11" fill="#64748b" font-family="Inter, 'Helvetica Neue', Arial, sans-serif" text-anchor="end" font-style="italic">Int</text><text x="66" y="673.4" font-size="12" fill="#0f172a" font-family="Inter, 'Helvetica Neue', Arial, sans-serif">leido_en</text><text x="268" y="673.4" font-size="11" fill="#64748b" font-family="Inter, 'Helvetica Neue', Arial, sans-serif" text-anchor="end" font-style="italic">Timestamp</text><rect x="623" y="753" width="260" height="240" rx="8" fill="#000" opacity="0.08"/><rect x="620" y="750" width="260" height="240" rx="8" fill="#ffffff" stroke="#cbd5e1" stroke-width="1.2"/><path d="M620,758 a8,8 0 0 1 8,-8 h244 a8,8 0 0 1 8,8 v26 h-260 z" fill="#0f766e"/><text x="750.0" y="774" fill="white" font-size="14" font-weight="700" font-family="Inter, 'Helvetica Neue', Arial, sans-serif" text-anchor="middle">siniestros</text><line x1="620" y1="784" x2="880" y2="784" stroke="#cbd5e1"/><text x="632" y="799.4" font-size="10" font-weight="700" fill="#dc2626" font-family="Inter, 'Helvetica Neue', Arial, sans-serif">PK</text><text x="666" y="799.4" font-size="12" fill="#0f172a" font-family="Inter, 'Helvetica Neue', Arial, sans-serif">id</text><text x="868" y="799.4" font-size="11" fill="#64748b" font-family="Inter, 'Helvetica Neue', Arial, sans-serif" text-anchor="end" font-style="italic">Int</text><text x="632" y="821.4" font-size="10" font-weight="700" fill="#2563eb" font-family="Inter, 'Helvetica Neue', Arial, sans-serif">FK</text><text x="666" y="821.4" font-size="12" fill="#0f172a" font-family="Inter, 'Helvetica Neue', Arial, sans-serif">poliza_id</text><text x="868" y="821.4" font-size="11" fill="#64748b" font-family="Inter, 'Helvetica Neue', Arial, sans-serif" text-anchor="end" font-style="italic">Int</text><text x="666" y="843.4" font-size="12" fill="#0f172a" font-family="Inter, 'Helvetica Neue', Arial, sans-serif">numero</text><text x="868" y="843.4" font-size="11" fill="#64748b" font-family="Inter, 'Helvetica Neue', Arial, sans-serif" text-anchor="end" font-style="italic">String UQ</text><text x="666" y="865.4" font-size="12" fill="#0f172a" font-family="Inter, 'Helvetica Neue', Arial, sans-serif">titulo</text><text x="868" y="865.4" font-size="11" fill="#64748b" font-family="Inter, 'Helvetica Neue', Arial, sans-serif" text-anchor="end" font-style="italic">String</text><text x="666" y="887.4" font-size="12" fill="#0f172a" font-family="Inter, 'Helvetica Neue', Arial, sans-serif">fecha_ocurrencia</text><text x="868" y="887.4" font-size="11" fill="#64748b" font-family="Inter, 'Helvetica Neue', Arial, sans-serif" text-anchor="end" font-style="italic">Timestamp</text><text x="666" y="909.4" font-size="12" fill="#0f172a" font-family="Inter, 'Helvetica Neue', Arial, sans-serif">fecha_reporte</text><text x="868" y="909.4" font-size="11" fill="#64748b" font-family="Inter, 'Helvetica Neue', Arial, sans-serif" text-anchor="end" font-style="italic">Timestamp</text><text x="666" y="931.4" font-size="12" fill="#0f172a" font-family="Inter, 'Helvetica Neue', Arial, sans-serif">estado</text><text x="868" y="931.4" font-size="11" fill="#64748b" font-family="Inter, 'Helvetica Neue', Arial, sans-serif" text-anchor="end" font-style="italic">SiniestroEstado</text><text x="632" y="953.4" font-size="10" font-weight="700" fill="#2563eb" font-family="Inter, 'Helvetica Neue', Arial, sans-serif">FK</text><text x="666" y="953.4" font-size="12" fill="#0f172a" font-family="Inter, 'Helvetica Neue', Arial, sans-serif">modificado_por_id</text><text x="868" y="953.4" font-size="11" fill="#64748b" font-family="Inter, 'Helvetica Neue', Arial, sans-serif" text-anchor="end" font-style="italic">Int?</text><text x="666" y="975.4" font-size="12" fill="#0f172a" font-family="Inter, 'Helvetica Neue', Arial, sans-serif">modificado_en</text><text x="868" y="975.4" font-size="11" fill="#64748b" font-family="Inter, 'Helvetica Neue', Arial, sans-serif" text-anchor="end" font-style="italic">Timestamp?</text></g>
  <g transform="translate(20, 1220)">
  <rect x="0" y="0" width="700" height="170" rx="8" fill="white" stroke="#cbd5e1"/>
  <text x="16" y="26" font-size="13" font-weight="700" fill="#0f172a" font-family="Inter, 'Helvetica Neue', Arial, sans-serif">Leyenda</text>
  <text x="16" y="56" font-size="11" font-weight="600" fill="#0f172a" font-family="Inter, 'Helvetica Neue', Arial, sans-serif">Cardinalidades (notación crow's foot)</text>
  <line x1="20" y1="78" x2="120" y2="78" stroke="#334155" stroke-width="1.6"
        marker-start="url(#m_one)" marker-end="url(#m_one)"/>
  <text x="135" y="82" font-size="11" fill="#0f172a" font-family="Inter, 'Helvetica Neue', Arial, sans-serif">uno a uno (1:1)</text>
  <line x1="20" y1="105" x2="120" y2="105" stroke="#334155" stroke-width="1.6"
        marker-start="url(#m_one)" marker-end="url(#m_many)"/>
  <text x="135" y="109" font-size="11" fill="#0f172a" font-family="Inter, 'Helvetica Neue', Arial, sans-serif">uno a muchos (1:N)</text>
  <line x1="20" y1="132" x2="120" y2="132" stroke="#334155" stroke-width="1.6"
        marker-start="url(#m_one)" marker-end="url(#m_zeromany)"/>
  <text x="135" y="136" font-size="11" fill="#0f172a" font-family="Inter, 'Helvetica Neue', Arial, sans-serif">uno a cero-o-muchos (0..N, FK opcional)</text>
  <text x="320" y="56" font-size="11" font-weight="600" fill="#0f172a" font-family="Inter, 'Helvetica Neue', Arial, sans-serif">Indicadores de campo</text>
  <text x="320" y="80" font-size="11" font-weight="700" fill="#dc2626" font-family="Inter, 'Helvetica Neue', Arial, sans-serif">PK</text>
  <text x="350" y="80" font-size="11" fill="#0f172a" font-family="Inter, 'Helvetica Neue', Arial, sans-serif">Primary key</text>
  <text x="320" y="102" font-size="11" font-weight="700" fill="#2563eb" font-family="Inter, 'Helvetica Neue', Arial, sans-serif">FK</text>
  <text x="350" y="102" font-size="11" fill="#0f172a" font-family="Inter, 'Helvetica Neue', Arial, sans-serif">Foreign key</text>
  <text x="320" y="124" font-size="10" font-weight="700" fill="#dc2626" font-family="Inter, 'Helvetica Neue', Arial, sans-serif">PK·FK</text>
  <text x="360" y="124" font-size="11" fill="#0f172a" font-family="Inter, 'Helvetica Neue', Arial, sans-serif">PK que también es FK</text>
  <text x="320" y="146" font-size="11" fill="#64748b" font-style="italic" font-family="Inter, 'Helvetica Neue', Arial, sans-serif">UQ</text>
  <text x="350" y="146" font-size="11" fill="#0f172a" font-family="Inter, 'Helvetica Neue', Arial, sans-serif">Unique · ? = nullable</text>
</g>
</svg>
