<?xml version="1.0" encoding="UTF-8"?>
<svg xmlns="http://www.w3.org/2000/svg" viewBox="0 0 1500 1140" preserveAspectRatio="xMidYMid meet">
  <defs><marker id="m_one" markerWidth="14" markerHeight="14" refX="13" refY="7" orient="auto" markerUnits="userSpaceOnUse">
            <line x1="6" y1="2" x2="6" y2="12" stroke="#334155" stroke-width="1.6"/>
        </marker><marker id="m_many" markerWidth="16" markerHeight="14" refX="15" refY="7" orient="auto" markerUnits="userSpaceOnUse">
            <path d="M2,7 L14,2 M2,7 L14,7 M2,7 L14,12" stroke="#334155" stroke-width="1.6" fill="none"/>
        </marker><marker id="m_zeromany" markerWidth="22" markerHeight="14" refX="21" refY="7" orient="auto" markerUnits="userSpaceOnUse">
            <circle cx="4" cy="7" r="3" fill="white" stroke="#334155" stroke-width="1.4"/>
            <path d="M9,7 L20,2 M9,7 L20,7 M9,7 L20,12" stroke="#334155" stroke-width="1.6" fill="none"/>
        </marker></defs>
  <rect width="1500" height="1140" fill="#fafbfc"/>
  
<text x="750" y="42" font-size="22" font-weight="700" fill="#0f172a" text-anchor="middle" font-family="Inter, 'Helvetica Neue', Arial, sans-serif">
  Diagrama Entidad-Relación · Polizing v2
</text>
<text x="750" y="62" font-size="12" fill="#64748b" text-anchor="middle" font-family="Inter, 'Helvetica Neue', Arial, sans-serif">
  10 tablas · relaciones 1:1 y 1:N · sin tablas puente
</text>

  <g id="relations"><path d="M320,239.2 L298,239.2 L300.0,239.2 L300.0,105.0 L302,105.0 L280,105.0" fill="none" stroke="#334155" stroke-width="1.6" marker-start="url(#m_one)" marker-end="url(#m_one)"/><path d="M320,366.6 L298,366.6 L300.0,366.6 L300.0,425.0 L302,425.0 L280,425.0" fill="none" stroke="#334155" stroke-width="1.6" marker-start="url(#m_one)" marker-end="url(#m_one)"/><path d="M580,278.4 L602,278.4 L600.0,278.4 L600.0,359.04 L598,359.04 L620,359.04" fill="none" stroke="#334155" stroke-width="1.6" marker-start="url(#m_one)" marker-end="url(#m_many)"/><path d="M476.0,200 L476.0,178 L476.0,178.0 L598,178.0 L620,178.0" fill="none" stroke="#334155" stroke-width="1.6" marker-start="url(#m_one)" marker-end="url(#m_many)"/><path d="M750.0,276 L750.0,298 L750.0,288.0 L770.0,288.0 L770.0,278 L770.0,300" fill="none" stroke="#334155" stroke-width="1.6" marker-start="url(#m_one)" marker-end="url(#m_zeromany)"/><path d="M960,316.0 L938,316.0 L940.0,316.0 L940.0,365.6 L942,365.6 L920,365.6" fill="none" stroke="#334155" stroke-width="1.6" marker-start="url(#m_one)" marker-end="url(#m_many)"/><path d="M960,494.0 L938,494.0 L940.0,494.0 L940.0,480.4 L942,480.4 L920,480.4" fill="none" stroke="#334155" stroke-width="1.6" marker-start="url(#m_one)" marker-end="url(#m_many)"/><path d="M740.0,628 L740.0,650 L740.0,654.0 L724.0,654.0 L724.0,658 L724.0,680" fill="none" stroke="#334155" stroke-width="1.6" marker-start="url(#m_one)" marker-end="url(#m_many)"/><path d="M880,789.0 L902,789.0 L920.0,789.0 L920.0,778.0 L938,778.0 L960,778.0" fill="none" stroke="#334155" stroke-width="1.6" marker-start="url(#m_one)" marker-end="url(#m_many)"/></g>
  <g id="tables"><rect x="23" y="43" width="260" height="130" rx="8" fill="#000" opacity="0.08"/><rect x="20" y="40" width="260" height="130" rx="8" fill="#ffffff" stroke="#cbd5e1" stroke-width="1.2"/><path d="M20,48 a8,8 0 0 1 8,-8 h244 a8,8 0 0 1 8,8 v26 h-260 z" fill="#0d9488"/><text x="150.0" y="64" fill="white" font-size="14" font-weight="700" font-family="Inter, 'Helvetica Neue', Arial, sans-serif" text-anchor="middle">clientes_corporativos</text><line x1="20" y1="74" x2="280" y2="74" stroke="#cbd5e1"/><text x="30" y="89.4" font-size="9" font-weight="700" fill="#dc2626" font-family="Inter, 'Helvetica Neue', Arial, sans-serif">PK·FK</text><text x="66" y="89.4" font-size="12" fill="#0f172a" font-family="Inter, 'Helvetica Neue', Arial, sans-serif">cliente_id</text><text x="268" y="89.4" font-size="11" fill="#64748b" font-family="Inter, 'Helvetica Neue', Arial, sans-serif" text-anchor="end" font-style="italic">Int</text><text x="66" y="111.4" font-size="12" fill="#0f172a" font-family="Inter, 'Helvetica Neue', Arial, sans-serif">cuit</text><text x="268" y="111.4" font-size="11" fill="#64748b" font-family="Inter, 'Helvetica Neue', Arial, sans-serif" text-anchor="end" font-style="italic">String UQ</text><text x="66" y="133.4" font-size="12" fill="#0f172a" font-family="Inter, 'Helvetica Neue', Arial, sans-serif">razon_social</text><text x="268" y="133.4" font-size="11" fill="#64748b" font-family="Inter, 'Helvetica Neue', Arial, sans-serif" text-anchor="end" font-style="italic">String</text><text x="66" y="155.4" font-size="12" fill="#0f172a" font-family="Inter, 'Helvetica Neue', Arial, sans-serif">contacto_nombre</text><text x="268" y="155.4" font-size="11" fill="#64748b" font-family="Inter, 'Helvetica Neue', Arial, sans-serif" text-anchor="end" font-style="italic">String?</text><rect x="323" y="203" width="260" height="196" rx="8" fill="#000" opacity="0.08"/><rect x="320" y="200" width="260" height="196" rx="8" fill="#ffffff" stroke="#cbd5e1" stroke-width="1.2"/><path d="M320,208 a8,8 0 0 1 8,-8 h244 a8,8 0 0 1 8,8 v26 h-260 z" fill="#0f766e"/><text x="450.0" y="224" fill="white" font-size="14" font-weight="700" font-family="Inter, 'Helvetica Neue', Arial, sans-serif" text-anchor="middle">clientes</text><line x1="320" y1="234" x2="580" y2="234" stroke="#cbd5e1"/><text x="332" y="249.4" font-size="10" font-weight="700" fill="#dc2626" font-family="Inter, 'Helvetica Neue', Arial, sans-serif">PK</text><text x="366" y="249.4" font-size="12" fill="#0f172a" font-family="Inter, 'Helvetica Neue', Arial, sans-serif">id</text><text x="568" y="249.4" font-size="11" fill="#64748b" font-family="Inter, 'Helvetica Neue', Arial, sans-serif" text-anchor="end" font-style="italic">Int</text><text x="366" y="271.4" font-size="12" fill="#0f172a" font-family="Inter, 'Helvetica Neue', Arial, sans-serif">tipo</text><text x="568" y="271.4" font-size="11" fill="#64748b" font-family="Inter, 'Helvetica Neue', Arial, sans-serif" text-anchor="end" font-style="italic">ClienteTipo</text><text x="366" y="293.4" font-size="12" fill="#0f172a" font-family="Inter, 'Helvetica Neue', Arial, sans-serif">email</text><text x="568" y="293.4" font-size="11" fill="#64748b" font-family="Inter, 'Helvetica Neue', Arial, sans-serif" text-anchor="end" font-style="italic">String?</text><text x="366" y="315.4" font-size="12" fill="#0f172a" font-family="Inter, 'Helvetica Neue', Arial, sans-serif">telefono</text><text x="568" y="315.4" font-size="11" fill="#64748b" font-family="Inter, 'Helvetica Neue', Arial, sans-serif" text-anchor="end" font-style="italic">String?</text><text x="366" y="337.4" font-size="12" fill="#0f172a" font-family="Inter, 'Helvetica Neue', Arial, sans-serif">direccion</text><text x="568" y="337.4" font-size="11" fill="#64748b" font-family="Inter, 'Helvetica Neue', Arial, sans-serif" text-anchor="end" font-style="italic">String?</text><text x="366" y="359.4" font-size="12" fill="#0f172a" font-family="Inter, 'Helvetica Neue', Arial, sans-serif">estado</text><text x="568" y="359.4" font-size="11" fill="#64748b" font-family="Inter, 'Helvetica Neue', Arial, sans-serif" text-anchor="end" font-style="italic">ClienteEstado</text><text x="366" y="381.4" font-size="12" fill="#0f172a" font-family="Inter, 'Helvetica Neue', Arial, sans-serif">fecha_alta</text><text x="568" y="381.4" font-size="11" fill="#64748b" font-family="Inter, 'Helvetica Neue', Arial, sans-serif" text-anchor="end" font-style="italic">Timestamp</text><rect x="23" y="363" width="260" height="130" rx="8" fill="#000" opacity="0.08"/><rect x="20" y="360" width="260" height="130" rx="8" fill="#ffffff" stroke="#cbd5e1" stroke-width="1.2"/><path d="M20,368 a8,8 0 0 1 8,-8 h244 a8,8 0 0 1 8,8 v26 h-260 z" fill="#0d9488"/><text x="150.0" y="384" fill="white" font-size="14" font-weight="700" font-family="Inter, 'Helvetica Neue', Arial, sans-serif" text-anchor="middle">clientes_no_corporativos</text><line x1="20" y1="394" x2="280" y2="394" stroke="#cbd5e1"/><text x="30" y="409.4" font-size="9" font-weight="700" fill="#dc2626" font-family="Inter, 'Helvetica Neue', Arial, sans-serif">PK·FK</text><text x="66" y="409.4" font-size="12" fill="#0f172a" font-family="Inter, 'Helvetica Neue', Arial, sans-serif">cliente_id</text><text x="268" y="409.4" font-size="11" fill="#64748b" font-family="Inter, 'Helvetica Neue', Arial, sans-serif" text-anchor="end" font-style="italic">Int</text><text x="66" y="431.4" font-size="12" fill="#0f172a" font-family="Inter, 'Helvetica Neue', Arial, sans-serif">dni</text><text x="268" y="431.4" font-size="11" fill="#64748b" font-family="Inter, 'Helvetica Neue', Arial, sans-serif" text-anchor="end" font-style="italic">String UQ</text><text x="66" y="453.4" font-size="12" fill="#0f172a" font-family="Inter, 'Helvetica Neue', Arial, sans-serif">nombre</text><text x="268" y="453.4" font-size="11" fill="#64748b" font-family="Inter, 'Helvetica Neue', Arial, sans-serif" text-anchor="end" font-style="italic">String</text><text x="66" y="475.4" font-size="12" fill="#0f172a" font-family="Inter, 'Helvetica Neue', Arial, sans-serif">apellido</text><text x="268" y="475.4" font-size="11" fill="#64748b" font-family="Inter, 'Helvetica Neue', Arial, sans-serif" text-anchor="end" font-style="italic">String</text><rect x="623" y="83" width="260" height="196" rx="8" fill="#000" opacity="0.08"/><rect x="620" y="80" width="260" height="196" rx="8" fill="#ffffff" stroke="#cbd5e1" stroke-width="1.2"/><path d="M620,88 a8,8 0 0 1 8,-8 h244 a8,8 0 0 1 8,8 v26 h-260 z" fill="#b45309"/><text x="750.0" y="104" fill="white" font-size="14" font-weight="700" font-family="Inter, 'Helvetica Neue', Arial, sans-serif" text-anchor="middle">pagos</text><line x1="620" y1="114" x2="880" y2="114" stroke="#cbd5e1"/><text x="632" y="129.4" font-size="10" font-weight="700" fill="#dc2626" font-family="Inter, 'Helvetica Neue', Arial, sans-serif">PK</text><text x="666" y="129.4" font-size="12" fill="#0f172a" font-family="Inter, 'Helvetica Neue', Arial, sans-serif">id</text><text x="868" y="129.4" font-size="11" fill="#64748b" font-family="Inter, 'Helvetica Neue', Arial, sans-serif" text-anchor="end" font-style="italic">Int</text><text x="632" y="151.4" font-size="10" font-weight="700" fill="#2563eb" font-family="Inter, 'Helvetica Neue', Arial, sans-serif">FK</text><text x="666" y="151.4" font-size="12" fill="#0f172a" font-family="Inter, 'Helvetica Neue', Arial, sans-serif">cliente_id</text><text x="868" y="151.4" font-size="11" fill="#64748b" font-family="Inter, 'Helvetica Neue', Arial, sans-serif" text-anchor="end" font-style="italic">Int</text><text x="666" y="173.4" font-size="12" fill="#0f172a" font-family="Inter, 'Helvetica Neue', Arial, sans-serif">monto</text><text x="868" y="173.4" font-size="11" fill="#64748b" font-family="Inter, 'Helvetica Neue', Arial, sans-serif" text-anchor="end" font-style="italic">Decimal</text><text x="666" y="195.4" font-size="12" fill="#0f172a" font-family="Inter, 'Helvetica Neue', Arial, sans-serif">fecha_pago</text><text x="868" y="195.4" font-size="11" fill="#64748b" font-family="Inter, 'Helvetica Neue', Arial, sans-serif" text-anchor="end" font-style="italic">Timestamp?</text><text x="666" y="217.4" font-size="12" fill="#0f172a" font-family="Inter, 'Helvetica Neue', Arial, sans-serif">estado</text><text x="868" y="217.4" font-size="11" fill="#64748b" font-family="Inter, 'Helvetica Neue', Arial, sans-serif" text-anchor="end" font-style="italic">PagoEstado</text><text x="666" y="239.4" font-size="12" fill="#0f172a" font-family="Inter, 'Helvetica Neue', Arial, sans-serif">metodo_pago</text><text x="868" y="239.4" font-size="11" fill="#64748b" font-family="Inter, 'Helvetica Neue', Arial, sans-serif" text-anchor="end" font-style="italic">String?</text><text x="666" y="261.4" font-size="12" fill="#0f172a" font-family="Inter, 'Helvetica Neue', Arial, sans-serif">moneda</text><text x="868" y="261.4" font-size="11" fill="#64748b" font-family="Inter, 'Helvetica Neue', Arial, sans-serif" text-anchor="end" font-style="italic">Char(3)</text><rect x="623" y="303" width="300" height="328" rx="8" fill="#000" opacity="0.08"/><rect x="620" y="300" width="300" height="328" rx="8" fill="#ffffff" stroke="#cbd5e1" stroke-width="1.2"/><path d="M620,308 a8,8 0 0 1 8,-8 h284 a8,8 0 0 1 8,8 v26 h-300 z" fill="#0f766e"/><text x="770.0" y="324" fill="white" font-size="14" font-weight="700" font-family="Inter, 'Helvetica Neue', Arial, sans-serif" text-anchor="middle">polizas</text><line x1="620" y1="334" x2="920" y2="334" stroke="#cbd5e1"/><text x="632" y="349.4" font-size="10" font-weight="700" fill="#dc2626" font-family="Inter, 'Helvetica Neue', Arial, sans-serif">PK</text><text x="666" y="349.4" font-size="12" fill="#0f172a" font-family="Inter, 'Helvetica Neue', Arial, sans-serif">id</text><text x="908" y="349.4" font-size="11" fill="#64748b" font-family="Inter, 'Helvetica Neue', Arial, sans-serif" text-anchor="end" font-style="italic">Int</text><text x="666" y="371.4" font-size="12" fill="#0f172a" font-family="Inter, 'Helvetica Neue', Arial, sans-serif">numero_poliza</text><text x="908" y="371.4" font-size="11" fill="#64748b" font-family="Inter, 'Helvetica Neue', Arial, sans-serif" text-anchor="end" font-style="italic">String UQ</text><text x="632" y="393.4" font-size="10" font-weight="700" fill="#2563eb" font-family="Inter, 'Helvetica Neue', Arial, sans-serif">FK</text><text x="666" y="393.4" font-size="12" fill="#0f172a" font-family="Inter, 'Helvetica Neue', Arial, sans-serif">cliente_id</text><text x="908" y="393.4" font-size="11" fill="#64748b" font-family="Inter, 'Helvetica Neue', Arial, sans-serif" text-anchor="end" font-style="italic">Int</text><text x="632" y="415.4" font-size="10" font-weight="700" fill="#2563eb" font-family="Inter, 'Helvetica Neue', Arial, sans-serif">FK</text><text x="666" y="415.4" font-size="12" fill="#0f172a" font-family="Inter, 'Helvetica Neue', Arial, sans-serif">aseguradora_id</text><text x="908" y="415.4" font-size="11" fill="#64748b" font-family="Inter, 'Helvetica Neue', Arial, sans-serif" text-anchor="end" font-style="italic">Int</text><text x="632" y="437.4" font-size="10" font-weight="700" fill="#2563eb" font-family="Inter, 'Helvetica Neue', Arial, sans-serif">FK</text><text x="666" y="437.4" font-size="12" fill="#0f172a" font-family="Inter, 'Helvetica Neue', Arial, sans-serif">tipo_seguro_id</text><text x="908" y="437.4" font-size="11" fill="#64748b" font-family="Inter, 'Helvetica Neue', Arial, sans-serif" text-anchor="end" font-style="italic">Int</text><text x="632" y="459.4" font-size="10" font-weight="700" fill="#2563eb" font-family="Inter, 'Helvetica Neue', Arial, sans-serif">FK</text><text x="666" y="459.4" font-size="12" fill="#0f172a" font-family="Inter, 'Helvetica Neue', Arial, sans-serif">pago_id</text><text x="908" y="459.4" font-size="11" fill="#64748b" font-family="Inter, 'Helvetica Neue', Arial, sans-serif" text-anchor="end" font-style="italic">Int?</text><text x="666" y="481.4" font-size="12" fill="#0f172a" font-family="Inter, 'Helvetica Neue', Arial, sans-serif">cobertura</text><text x="908" y="481.4" font-size="11" fill="#64748b" font-family="Inter, 'Helvetica Neue', Arial, sans-serif" text-anchor="end" font-style="italic">CoberturaTipo</text><text x="666" y="503.4" font-size="12" fill="#0f172a" font-family="Inter, 'Helvetica Neue', Arial, sans-serif">estado</text><text x="908" y="503.4" font-size="11" fill="#64748b" font-family="Inter, 'Helvetica Neue', Arial, sans-serif" text-anchor="end" font-style="italic">PolizaEstado</text><text x="666" y="525.4" font-size="12" fill="#0f172a" font-family="Inter, 'Helvetica Neue', Arial, sans-serif">fecha_inicio_vigencia</text><text x="908" y="525.4" font-size="11" fill="#64748b" font-family="Inter, 'Helvetica Neue', Arial, sans-serif" text-anchor="end" font-style="italic">Timestamp</text><text x="666" y="547.4" font-size="12" fill="#0f172a" font-family="Inter, 'Helvetica Neue', Arial, sans-serif">fecha_fin_vigencia</text><text x="908" y="547.4" font-size="11" fill="#64748b" font-family="Inter, 'Helvetica Neue', Arial, sans-serif" text-anchor="end" font-style="italic">Timestamp</text><text x="666" y="569.4" font-size="12" fill="#0f172a" font-family="Inter, 'Helvetica Neue', Arial, sans-serif">suma_asegurada</text><text x="908" y="569.4" font-size="11" fill="#64748b" font-family="Inter, 'Helvetica Neue', Arial, sans-serif" text-anchor="end" font-style="italic">Decimal</text><text x="666" y="591.4" font-size="12" fill="#0f172a" font-family="Inter, 'Helvetica Neue', Arial, sans-serif">prima_mensual</text><text x="908" y="591.4" font-size="11" fill="#64748b" font-family="Inter, 'Helvetica Neue', Arial, sans-serif" text-anchor="end" font-style="italic">Decimal</text><text x="666" y="613.4" font-size="12" fill="#0f172a" font-family="Inter, 'Helvetica Neue', Arial, sans-serif">moneda</text><text x="908" y="613.4" font-size="11" fill="#64748b" font-family="Inter, 'Helvetica Neue', Arial, sans-serif" text-anchor="end" font-style="italic">Char(3)</text><rect x="963" y="243" width="260" height="152" rx="8" fill="#000" opacity="0.08"/><rect x="960" y="240" width="260" height="152" rx="8" fill="#ffffff" stroke="#cbd5e1" stroke-width="1.2"/><path d="M960,248 a8,8 0 0 1 8,-8 h244 a8,8 0 0 1 8,8 v26 h-260 z" fill="#7c3aed"/><text x="1090.0" y="264" fill="white" font-size="14" font-weight="700" font-family="Inter, 'Helvetica Neue', Arial, sans-serif" text-anchor="middle">empresas_aseguradoras</text><line x1="960" y1="274" x2="1220" y2="274" stroke="#cbd5e1"/><text x="972" y="289.4" font-size="10" font-weight="700" fill="#dc2626" font-family="Inter, 'Helvetica Neue', Arial, sans-serif">PK</text><text x="1006" y="289.4" font-size="12" fill="#0f172a" font-family="Inter, 'Helvetica Neue', Arial, sans-serif">id</text><text x="1208" y="289.4" font-size="11" fill="#64748b" font-family="Inter, 'Helvetica Neue', Arial, sans-serif" text-anchor="end" font-style="italic">Int</text><text x="1006" y="311.4" font-size="12" fill="#0f172a" font-family="Inter, 'Helvetica Neue', Arial, sans-serif">razon_social</text><text x="1208" y="311.4" font-size="11" fill="#64748b" font-family="Inter, 'Helvetica Neue', Arial, sans-serif" text-anchor="end" font-style="italic">String</text><text x="1006" y="333.4" font-size="12" fill="#0f172a" font-family="Inter, 'Helvetica Neue', Arial, sans-serif">cuit</text><text x="1208" y="333.4" font-size="11" fill="#64748b" font-family="Inter, 'Helvetica Neue', Arial, sans-serif" text-anchor="end" font-style="italic">String UQ</text><text x="1006" y="355.4" font-size="12" fill="#0f172a" font-family="Inter, 'Helvetica Neue', Arial, sans-serif">telefono</text><text x="1208" y="355.4" font-size="11" fill="#64748b" font-family="Inter, 'Helvetica Neue', Arial, sans-serif" text-anchor="end" font-style="italic">String?</text><text x="1006" y="377.4" font-size="12" fill="#0f172a" font-family="Inter, 'Helvetica Neue', Arial, sans-serif">email</text><text x="1208" y="377.4" font-size="11" fill="#64748b" font-family="Inter, 'Helvetica Neue', Arial, sans-serif" text-anchor="end" font-style="italic">String?</text><rect x="963" y="443" width="260" height="108" rx="8" fill="#000" opacity="0.08"/><rect x="960" y="440" width="260" height="108" rx="8" fill="#ffffff" stroke="#cbd5e1" stroke-width="1.2"/><path d="M960,448 a8,8 0 0 1 8,-8 h244 a8,8 0 0 1 8,8 v26 h-260 z" fill="#7c3aed"/><text x="1090.0" y="464" fill="white" font-size="14" font-weight="700" font-family="Inter, 'Helvetica Neue', Arial, sans-serif" text-anchor="middle">tipos_seguro</text><line x1="960" y1="474" x2="1220" y2="474" stroke="#cbd5e1"/><text x="972" y="489.4" font-size="10" font-weight="700" fill="#dc2626" font-family="Inter, 'Helvetica Neue', Arial, sans-serif">PK</text><text x="1006" y="489.4" font-size="12" fill="#0f172a" font-family="Inter, 'Helvetica Neue', Arial, sans-serif">id</text><text x="1208" y="489.4" font-size="11" fill="#64748b" font-family="Inter, 'Helvetica Neue', Arial, sans-serif" text-anchor="end" font-style="italic">Int</text><text x="1006" y="511.4" font-size="12" fill="#0f172a" font-family="Inter, 'Helvetica Neue', Arial, sans-serif">nombre</text><text x="1208" y="511.4" font-size="11" fill="#64748b" font-family="Inter, 'Helvetica Neue', Arial, sans-serif" text-anchor="end" font-style="italic">String UQ</text><text x="1006" y="533.4" font-size="12" fill="#0f172a" font-family="Inter, 'Helvetica Neue', Arial, sans-serif">descripcion</text><text x="1208" y="533.4" font-size="11" fill="#64748b" font-family="Inter, 'Helvetica Neue', Arial, sans-serif" text-anchor="end" font-style="italic">String?</text><rect x="623" y="683" width="260" height="218" rx="8" fill="#000" opacity="0.08"/><rect x="620" y="680" width="260" height="218" rx="8" fill="#ffffff" stroke="#cbd5e1" stroke-width="1.2"/><path d="M620,688 a8,8 0 0 1 8,-8 h244 a8,8 0 0 1 8,8 v26 h-260 z" fill="#0f766e"/><text x="750.0" y="704" fill="white" font-size="14" font-weight="700" font-family="Inter, 'Helvetica Neue', Arial, sans-serif" text-anchor="middle">siniestros</text><line x1="620" y1="714" x2="880" y2="714" stroke="#cbd5e1"/><text x="632" y="729.4" font-size="10" font-weight="700" fill="#dc2626" font-family="Inter, 'Helvetica Neue', Arial, sans-serif">PK</text><text x="666" y="729.4" font-size="12" fill="#0f172a" font-family="Inter, 'Helvetica Neue', Arial, sans-serif">id</text><text x="868" y="729.4" font-size="11" fill="#64748b" font-family="Inter, 'Helvetica Neue', Arial, sans-serif" text-anchor="end" font-style="italic">Int</text><text x="632" y="751.4" font-size="10" font-weight="700" fill="#2563eb" font-family="Inter, 'Helvetica Neue', Arial, sans-serif">FK</text><text x="666" y="751.4" font-size="12" fill="#0f172a" font-family="Inter, 'Helvetica Neue', Arial, sans-serif">poliza_id</text><text x="868" y="751.4" font-size="11" fill="#64748b" font-family="Inter, 'Helvetica Neue', Arial, sans-serif" text-anchor="end" font-style="italic">Int</text><text x="666" y="773.4" font-size="12" fill="#0f172a" font-family="Inter, 'Helvetica Neue', Arial, sans-serif">numero</text><text x="868" y="773.4" font-size="11" fill="#64748b" font-family="Inter, 'Helvetica Neue', Arial, sans-serif" text-anchor="end" font-style="italic">String UQ</text><text x="666" y="795.4" font-size="12" fill="#0f172a" font-family="Inter, 'Helvetica Neue', Arial, sans-serif">titulo</text><text x="868" y="795.4" font-size="11" fill="#64748b" font-family="Inter, 'Helvetica Neue', Arial, sans-serif" text-anchor="end" font-style="italic">String</text><text x="666" y="817.4" font-size="12" fill="#0f172a" font-family="Inter, 'Helvetica Neue', Arial, sans-serif">fecha_ocurrencia</text><text x="868" y="817.4" font-size="11" fill="#64748b" font-family="Inter, 'Helvetica Neue', Arial, sans-serif" text-anchor="end" font-style="italic">Timestamp</text><text x="666" y="839.4" font-size="12" fill="#0f172a" font-family="Inter, 'Helvetica Neue', Arial, sans-serif">fecha_reporte</text><text x="868" y="839.4" font-size="11" fill="#64748b" font-family="Inter, 'Helvetica Neue', Arial, sans-serif" text-anchor="end" font-style="italic">Timestamp</text><text x="666" y="861.4" font-size="12" fill="#0f172a" font-family="Inter, 'Helvetica Neue', Arial, sans-serif">estado</text><text x="868" y="861.4" font-size="11" fill="#64748b" font-family="Inter, 'Helvetica Neue', Arial, sans-serif" text-anchor="end" font-style="italic">SiniestroEstado</text><text x="666" y="883.4" font-size="12" fill="#0f172a" font-family="Inter, 'Helvetica Neue', Arial, sans-serif">leido</text><text x="868" y="883.4" font-size="11" fill="#64748b" font-family="Inter, 'Helvetica Neue', Arial, sans-serif" text-anchor="end" font-style="italic">Boolean</text><rect x="963" y="683" width="260" height="196" rx="8" fill="#000" opacity="0.08"/><rect x="960" y="680" width="260" height="196" rx="8" fill="#ffffff" stroke="#cbd5e1" stroke-width="1.2"/><path d="M960,688 a8,8 0 0 1 8,-8 h244 a8,8 0 0 1 8,8 v26 h-260 z" fill="#0d9488"/><text x="1090.0" y="704" fill="white" font-size="14" font-weight="700" font-family="Inter, 'Helvetica Neue', Arial, sans-serif" text-anchor="middle">siniestro_documentos</text><line x1="960" y1="714" x2="1220" y2="714" stroke="#cbd5e1"/><text x="972" y="729.4" font-size="10" font-weight="700" fill="#dc2626" font-family="Inter, 'Helvetica Neue', Arial, sans-serif">PK</text><text x="1006" y="729.4" font-size="12" fill="#0f172a" font-family="Inter, 'Helvetica Neue', Arial, sans-serif">id</text><text x="1208" y="729.4" font-size="11" fill="#64748b" font-family="Inter, 'Helvetica Neue', Arial, sans-serif" text-anchor="end" font-style="italic">Int</text><text x="972" y="751.4" font-size="10" font-weight="700" fill="#2563eb" font-family="Inter, 'Helvetica Neue', Arial, sans-serif">FK</text><text x="1006" y="751.4" font-size="12" fill="#0f172a" font-family="Inter, 'Helvetica Neue', Arial, sans-serif">siniestro_id</text><text x="1208" y="751.4" font-size="11" fill="#64748b" font-family="Inter, 'Helvetica Neue', Arial, sans-serif" text-anchor="end" font-style="italic">Int</text><text x="1006" y="773.4" font-size="12" fill="#0f172a" font-family="Inter, 'Helvetica Neue', Arial, sans-serif">tipo</text><text x="1208" y="773.4" font-size="11" fill="#64748b" font-family="Inter, 'Helvetica Neue', Arial, sans-serif" text-anchor="end" font-style="italic">DocumentoTipo</text><text x="1006" y="795.4" font-size="12" fill="#0f172a" font-family="Inter, 'Helvetica Neue', Arial, sans-serif">nombre</text><text x="1208" y="795.4" font-size="11" fill="#64748b" font-family="Inter, 'Helvetica Neue', Arial, sans-serif" text-anchor="end" font-style="italic">String</text><text x="1006" y="817.4" font-size="12" fill="#0f172a" font-family="Inter, 'Helvetica Neue', Arial, sans-serif">url</text><text x="1208" y="817.4" font-size="11" fill="#64748b" font-family="Inter, 'Helvetica Neue', Arial, sans-serif" text-anchor="end" font-style="italic">String</text><text x="1006" y="839.4" font-size="12" fill="#0f172a" font-family="Inter, 'Helvetica Neue', Arial, sans-serif">mime_type</text><text x="1208" y="839.4" font-size="11" fill="#64748b" font-family="Inter, 'Helvetica Neue', Arial, sans-serif" text-anchor="end" font-style="italic">String</text><text x="1006" y="861.4" font-size="12" fill="#0f172a" font-family="Inter, 'Helvetica Neue', Arial, sans-serif">tamano_bytes</text><text x="1208" y="861.4" font-size="11" fill="#64748b" font-family="Inter, 'Helvetica Neue', Arial, sans-serif" text-anchor="end" font-style="italic">Int?</text><rect x="1283" y="683" width="200" height="152" rx="8" fill="#000" opacity="0.08"/><rect x="1280" y="680" width="200" height="152" rx="8" fill="#ffffff" stroke="#cbd5e1" stroke-width="1.2"/><path d="M1280,688 a8,8 0 0 1 8,-8 h184 a8,8 0 0 1 8,8 v26 h-200 z" fill="#475569"/><text x="1380.0" y="704" fill="white" font-size="14" font-weight="700" font-family="Inter, 'Helvetica Neue', Arial, sans-serif" text-anchor="middle">usuarios</text><line x1="1280" y1="714" x2="1480" y2="714" stroke="#cbd5e1"/><text x="1292" y="729.4" font-size="10" font-weight="700" fill="#dc2626" font-family="Inter, 'Helvetica Neue', Arial, sans-serif">PK</text><text x="1326" y="729.4" font-size="12" fill="#0f172a" font-family="Inter, 'Helvetica Neue', Arial, sans-serif">id</text><text x="1468" y="729.4" font-size="11" fill="#64748b" font-family="Inter, 'Helvetica Neue', Arial, sans-serif" text-anchor="end" font-style="italic">Int</text><text x="1326" y="751.4" font-size="12" fill="#0f172a" font-family="Inter, 'Helvetica Neue', Arial, sans-serif">dni</text><text x="1468" y="751.4" font-size="11" fill="#64748b" font-family="Inter, 'Helvetica Neue', Arial, sans-serif" text-anchor="end" font-style="italic">String UQ</text><text x="1326" y="773.4" font-size="12" fill="#0f172a" font-family="Inter, 'Helvetica Neue', Arial, sans-serif">email</text><text x="1468" y="773.4" font-size="11" fill="#64748b" font-family="Inter, 'Helvetica Neue', Arial, sans-serif" text-anchor="end" font-style="italic">String UQ</text><text x="1326" y="795.4" font-size="12" fill="#0f172a" font-family="Inter, 'Helvetica Neue', Arial, sans-serif">nombre_completo</text><text x="1468" y="795.4" font-size="11" fill="#64748b" font-family="Inter, 'Helvetica Neue', Arial, sans-serif" text-anchor="end" font-style="italic">String</text><text x="1326" y="817.4" font-size="12" fill="#0f172a" font-family="Inter, 'Helvetica Neue', Arial, sans-serif">rol</text><text x="1468" y="817.4" font-size="11" fill="#64748b" font-family="Inter, 'Helvetica Neue', Arial, sans-serif" text-anchor="end" font-style="italic">Rol</text></g>
  
<g transform="translate(20, 940)">
  <rect x="0" y="0" width="700" height="170" rx="8" fill="white" stroke="#cbd5e1"/>
  <text x="16" y="26" font-size="13" font-weight="700" fill="#0f172a" font-family="Inter, 'Helvetica Neue', Arial, sans-serif">Leyenda</text>

  <!-- Cardinalidades -->
  <text x="16" y="56" font-size="11" font-weight="600" fill="#0f172a" font-family="Inter, 'Helvetica Neue', Arial, sans-serif">Cardinalidades (notación crow's foot)</text>

  <line x1="20" y1="78" x2="120" y2="78" stroke="#334155" stroke-width="1.6"
        marker-start="url(#m_one)" marker-end="url(#m_one)"/>
  <text x="135" y="82" font-size="11" fill="#0f172a" font-family="Inter, 'Helvetica Neue', Arial, sans-serif">uno a uno (1:1)</text>

  <line x1="20" y1="105" x2="120" y2="105" stroke="#334155" stroke-width="1.6"
        marker-start="url(#m_one)" marker-end="url(#m_many)"/>
  <text x="135" y="109" font-size="11" fill="#0f172a" font-family="Inter, 'Helvetica Neue', Arial, sans-serif">uno a muchos (1:N)</text>

  <line x1="20" y1="132" x2="120" y2="132" stroke="#334155" stroke-width="1.6"
        marker-start="url(#m_one)" marker-end="url(#m_zeromany)"/>
  <text x="135" y="136" font-size="11" fill="#0f172a" font-family="Inter, 'Helvetica Neue', Arial, sans-serif">uno a cero-o-muchos (0..N, FK opcional)</text>

  <!-- Roles de campo -->
  <text x="320" y="56" font-size="11" font-weight="600" fill="#0f172a" font-family="Inter, 'Helvetica Neue', Arial, sans-serif">Indicadores de campo</text>
  <text x="320" y="80" font-size="11" font-weight="700" fill="#dc2626" font-family="Inter, 'Helvetica Neue', Arial, sans-serif">PK</text>
  <text x="350" y="80" font-size="11" fill="#0f172a" font-family="Inter, 'Helvetica Neue', Arial, sans-serif">Primary key</text>
  <text x="320" y="102" font-size="11" font-weight="700" fill="#2563eb" font-family="Inter, 'Helvetica Neue', Arial, sans-serif">FK</text>
  <text x="350" y="102" font-size="11" fill="#0f172a" font-family="Inter, 'Helvetica Neue', Arial, sans-serif">Foreign key</text>
  <text x="320" y="124" font-size="10" font-weight="700" fill="#dc2626" font-family="Inter, 'Helvetica Neue', Arial, sans-serif">PK·FK</text>
  <text x="360" y="124" font-size="11" fill="#0f172a" font-family="Inter, 'Helvetica Neue', Arial, sans-serif">PK que también es FK (subtipo)</text>
  <text x="320" y="146" font-size="11" fill="#64748b" font-style="italic" font-family="Inter, 'Helvetica Neue', Arial, sans-serif">UQ</text>
  <text x="350" y="146" font-size="11" fill="#0f172a" font-family="Inter, 'Helvetica Neue', Arial, sans-serif">Unique · ? = nullable</text>
</g>

</svg>
